<svg xmlns="http://www.w3.org/2000/svg" width="121" height="48" viewBox="0 0 121 48" fill="none"><path d="M79.8588 10.3185V21.8373L82.2461 21.7893V16.7978L82.5326 17.1338C82.8191 17.4218 83.1533 17.6137 83.5353 17.8057C84.0605 18.0457 84.5857 18.1417 85.1109 18.1417C86.3523 18.1897 87.5937 17.6617 88.4054 16.7018C89.3126 15.646 89.7901 14.3021 89.7423 12.9103C89.7901 11.5184 89.3604 10.1746 88.5487 9.11868C87.737 8.15878 86.5433 7.63084 85.3019 7.67884C84.8722 7.67884 84.4902 7.72683 84.0605 7.87082C83.7263 7.9668 83.4398 8.11079 83.1533 8.25477C82.9146 8.39876 82.7236 8.54274 82.5326 8.73472C82.3894 8.8787 82.2939 8.97469 82.1984 9.11868L82.1029 9.16667H82.0552V8.83071C82.0552 8.20678 81.6254 7.87082 80.8137 7.87082H78.6174V9.98258H79.4291C79.6201 9.98258 79.8111 10.1266 79.8588 10.3185ZM82.9623 10.5105V10.5585C83.3921 10.0306 84.0605 9.74261 84.729 9.74261C85.4452 9.69462 86.1136 10.0306 86.5433 10.6065C87.0208 11.2784 87.2595 12.0944 87.2118 12.9103C87.2595 13.7262 86.973 14.5421 86.4956 15.166C86.0659 15.694 85.3974 15.9819 84.6812 15.9819C83.965 16.0299 83.2488 15.646 82.8668 15.07C82.4371 14.4461 82.1984 13.6782 82.1984 12.9103C82.1506 12.0464 82.3894 11.1825 82.9623 10.5105ZM21.4171 34.0759L20.319 33.356V24.381H19.364V32.7801L18.8388 32.4441C18.6956 32.3481 18.4569 32.3481 18.3136 32.4441L17.8362 32.7321V24.381H16.8812V33.356L15.7831 34.0759V24.477H14.8281V35.0358L14.8759 35.1318L18.1226 39.1154C18.2181 39.2114 18.3614 39.3074 18.5046 39.3074C18.6478 39.3074 18.7911 39.2594 18.8866 39.1154L22.1333 35.1318C22.1811 35.0838 22.1811 35.0838 22.1811 35.0358V24.477H21.3694V34.0759H21.4171ZM19.6505 36.9076H17.5974L16.0695 35.0358L18.6001 33.404L21.1307 34.9878L19.6505 36.9076ZM49.6353 17.9017H52.2136V13.1022H54.6964C55.8901 13.1502 57.036 12.6703 57.8954 11.8064C58.7549 10.8945 59.1846 9.69462 59.1368 8.49475C59.1846 7.24688 58.7549 6.04701 57.8954 5.18311C57.036 4.3192 55.8901 3.88725 54.6964 3.93525H48.3461V6.143H49.6353V17.9017ZM52.2136 6.09501H54.3145C54.9352 6.04701 55.5559 6.28699 55.9856 6.71894C56.4153 7.19889 56.6063 7.82282 56.5585 8.44675C56.6063 9.07068 56.3676 9.69462 55.9378 10.2226C55.5081 10.6545 54.8874 10.8945 54.2667 10.8945H52.2136V6.09501ZM73.2698 18.1417C73.7473 18.1417 74.177 18.0937 74.6545 17.9497C75.0364 17.8537 75.4184 17.7577 75.7526 17.5658C76.0391 17.4218 76.2778 17.2778 76.5643 17.1338C76.7553 17.0378 76.8985 16.8938 77.0895 16.7498L77.2805 16.5579L76.2778 14.8301L75.9436 15.118C75.6094 15.358 75.2752 15.55 74.8932 15.694C74.4635 15.8859 73.986 16.0299 73.5085 16.0299C72.7923 16.0299 72.0761 15.742 71.5032 15.262C70.9302 14.7341 70.5483 14.0621 70.5005 13.2942H77.376L77.4237 12.3823C77.4715 11.1345 77.0418 9.93459 76.2301 8.97469C75.4184 8.06279 74.2247 7.58285 72.9833 7.63084C71.5987 7.58285 70.2618 8.11079 69.3068 9.11868C68.3519 10.1266 67.8267 11.4704 67.8745 12.8623C67.8267 14.2541 68.3519 15.646 69.3546 16.6059C70.405 17.6617 71.8374 18.1897 73.2698 18.1417ZM71.4077 10.0786C71.8374 9.69462 72.4104 9.50264 72.9833 9.55063C73.5085 9.55063 73.986 9.74261 74.3202 10.1266C74.7022 10.5105 74.8932 11.0385 74.8932 11.5664H70.5483C70.6437 10.9905 70.9302 10.4625 71.4077 10.0786ZM59.1846 26.2048C57.7522 24.9089 55.9378 24.237 54.028 24.333H48.3461V26.5408H49.6353V37.0036C49.5876 37.3876 49.7308 37.7235 49.9695 38.0115C50.256 38.2515 50.638 38.3475 50.9722 38.3475H54.028C55.9378 38.4435 57.7999 37.7715 59.1846 36.4757C60.5215 35.0838 61.1899 33.26 61.0945 31.3402C61.2377 29.4205 60.5215 27.5487 59.1846 26.2048ZM57.2747 34.9399C56.3676 35.8038 55.1739 36.2357 53.9325 36.1397H52.6433C52.4523 36.1877 52.2614 35.9957 52.2136 35.8038V35.7078L52.1659 26.5408H53.9325C55.1739 26.4928 56.3676 26.9247 57.2747 27.7886C58.1342 28.7485 58.6116 30.0444 58.5161 31.3402C58.5639 32.6841 58.1342 33.98 57.2747 34.9399ZM101.679 29.5644C99.4826 27.5967 96.0926 27.5967 93.8963 29.5644C91.8432 31.6282 91.7954 34.9398 93.8008 37.0516L93.8963 37.1476C94.9467 38.1555 96.3314 38.6834 97.7637 38.6354C99.1961 38.6834 100.629 38.1555 101.679 37.1476C103.732 35.1318 103.78 31.7722 101.774 29.7084C101.727 29.6124 101.727 29.5644 101.679 29.5644ZM99.9123 35.5638C99.3394 36.1397 98.5754 36.4757 97.8115 36.4277C96.9998 36.4277 96.2836 36.1397 95.7106 35.5638C95.1377 34.9398 94.8035 34.1719 94.8512 33.308C94.8035 32.4441 95.1377 31.6762 95.7106 31.0523C96.2358 30.4763 96.9998 30.1404 97.8115 30.1884C98.6232 30.1884 99.3871 30.4763 99.9123 31.0523C101.058 32.3481 101.058 34.3159 99.9123 35.5638ZM71.7897 29.5644C69.5456 27.5967 66.2033 27.5967 64.007 29.5644C61.9539 31.6282 61.9061 34.9398 63.9115 37.0516L64.007 37.1476C65.0574 38.1555 66.4421 38.6834 67.8745 38.6354C69.3068 38.6834 70.7392 38.1555 71.7897 37.1476C73.8428 35.1318 73.8905 31.7722 71.8852 29.7084C71.8374 29.6124 71.8374 29.5644 71.7897 29.5644ZM69.9753 35.5638C68.8294 36.7157 66.9195 36.7636 65.7736 35.5638C65.2007 34.9398 64.8664 34.1239 64.9142 33.308C64.8664 32.4921 65.2007 31.6762 65.7736 31.0523C66.2988 30.4763 67.0628 30.1404 67.8745 30.1884C68.6861 30.1884 69.4501 30.4763 69.9753 31.0523C71.169 32.3481 71.169 34.3159 69.9753 35.5638Z" fill="#0362B2"></path><path d="M34.1656 0H3.32139C1.79351 0 0.552099 1.24786 0.552099 2.7837V29.3248C0.313367 39.4517 8.28703 47.8028 18.3615 47.9947C28.3883 48.2347 36.6962 40.2196 36.9349 30.0927V2.83169C36.9349 1.29586 35.6935 0.0479947 34.1656 0ZM35.598 29.3248C35.598 38.6838 28.0541 46.2669 18.7435 46.3149C9.43294 46.3149 1.889 38.7318 1.84125 29.3248V24.4293H14.876V14.4464C14.876 14.1585 15.1148 13.9185 15.4012 13.9185H18.2183V8.87903H14.3986C14.1121 8.87903 13.8734 8.63905 13.8734 8.35109C13.8734 8.06312 14.1121 7.82314 14.3986 7.82314H23.0407C23.3272 7.82314 23.5659 8.06312 23.5659 8.35109C23.5659 8.63905 23.3272 8.87903 23.0407 8.87903H19.221V13.9665H21.8948C22.038 13.9665 22.1812 14.0145 22.2767 14.1105C22.3722 14.2064 22.42 14.3504 22.42 14.4464V24.3813H35.598V29.3248Z" fill="#0362B2"></path><path d="M16.9771 24.2379V24.3819H15.8789V14.9749H21.3698V16.9907H19.2689V17.9986H21.3698V19.3424H18.4572V20.3503H21.3698V21.6942H19.2689V22.702H21.3698V24.2859H20.3193V24.1419H19.3644V24.2859H17.8843V24.1419C17.932 24.2379 16.9771 24.2379 16.9771 24.2379ZM83.0582 35.3727C82.6762 35.6606 82.2943 35.9006 81.8168 36.0926C81.3393 36.3325 80.8141 36.4285 80.3366 36.4285C79.525 36.4765 78.7133 36.1406 78.1403 35.6126C77.5196 35.0367 77.1854 34.1728 77.2331 33.3569C77.1854 32.541 77.4719 31.7251 78.0448 31.1011C78.6178 30.5252 79.3817 30.1892 80.1934 30.1892C80.5276 30.1892 80.8619 30.2852 81.1961 30.3812C81.4826 30.4772 81.6258 30.7172 81.6735 30.9571V31.4851H83.8699V30.2372C83.8699 29.7093 83.6311 29.1813 83.2014 28.8934C82.7717 28.5574 82.2943 28.3174 81.769 28.1734C81.2916 28.0295 80.7664 27.9815 80.2412 27.9815C78.761 27.8855 77.3286 28.4614 76.2782 29.5173C75.2755 30.5252 74.7503 31.869 74.7503 33.2609C74.7026 34.6527 75.2755 36.0446 76.2304 37.0045H76.4214C77.4719 38.0124 78.8565 38.5883 80.3366 38.5403C80.8619 38.5403 81.3393 38.4443 81.8168 38.3483C82.2465 38.2523 82.6285 38.1084 83.0105 37.9164C83.2969 37.7724 83.5834 37.5804 83.8699 37.3404C84.0609 37.1965 84.2041 37.0525 84.3951 36.9085L84.5861 36.7165L83.5357 34.9887L83.0582 35.3727ZM109.128 28.9414C108.555 29.4213 108.125 30.0932 107.934 30.8132H107.886L107.934 30.1892V29.6133C107.934 28.7974 107.504 28.3654 106.597 28.3654H104.305V30.4772H105.117C105.308 30.4292 105.547 30.5732 105.547 30.8132V38.3963L107.982 38.3483V34.3648C107.982 33.8368 108.077 33.2609 108.221 32.7809C108.364 32.109 108.746 31.5811 109.319 31.1971C109.796 30.8611 110.369 30.6692 110.99 30.6692C111.181 30.6692 111.42 30.6692 111.611 30.7172V28.2694H111.133C110.369 28.1734 109.701 28.4614 109.128 28.9414ZM119.918 33.9328C119.536 33.5009 119.107 33.1169 118.582 32.8769C118.056 32.637 117.531 32.445 117.006 32.253C116.528 32.109 116.099 31.869 115.669 31.6291C115.335 31.4851 115.144 31.1971 115.096 30.8611C115.096 30.5732 115.239 30.3332 115.526 30.1892C115.86 29.9972 116.242 29.9492 116.624 29.9492C116.91 29.9492 117.245 29.9972 117.483 30.1412C117.722 30.2372 117.865 30.4292 117.865 30.6692V31.1491H120.062V30.1412C120.062 29.7573 119.918 29.4213 119.727 29.1333C119.489 28.8454 119.155 28.6054 118.82 28.4614C118.438 28.3174 118.056 28.2214 117.674 28.1254C117.292 28.0775 116.91 28.0295 116.528 28.0295C115.526 27.9815 114.571 28.2694 113.759 28.7974C113.043 29.2773 112.613 30.0932 112.661 31.0051C112.661 31.5811 112.852 32.157 113.186 32.589C113.568 33.0689 113.998 33.4049 114.523 33.6928C115.048 33.9328 115.574 34.1728 116.099 34.3648C116.576 34.5567 117.006 34.7487 117.436 34.9887C117.818 35.2287 117.961 35.4206 117.961 35.7086C118.009 35.9966 117.818 36.2846 117.579 36.4285C117.292 36.6205 116.958 36.7165 116.576 36.6685C116.051 36.6685 115.526 36.5245 115.048 36.2366C114.666 36.0446 114.332 35.8526 113.998 35.5646C113.855 35.4206 113.711 35.2767 113.616 35.1327L112.422 36.7165L112.852 37.1965C113.282 37.5804 113.807 37.8684 114.332 38.1084C115.048 38.3963 115.812 38.5883 116.576 38.5883C117.579 38.6363 118.534 38.3483 119.346 37.7244C120.062 37.1965 120.444 36.3805 120.444 35.4686C120.491 34.9407 120.3 34.3648 119.918 33.9328ZM89.4562 35.8526C88.9788 35.5166 88.7878 34.9407 88.8355 34.3648V30.2852H91.1273V28.2694H88.8355V25.5337H86.4482V28.2694H85.1113V30.2852H86.4004V34.6527C86.4004 35.2287 86.4959 35.8046 86.7347 36.3325H86.6392C86.7824 36.7645 87.0689 37.1485 87.4031 37.4364C87.7374 37.7244 88.0716 37.9164 88.4535 38.0604C88.7878 38.2043 89.1697 38.3003 89.5517 38.3483C89.8859 38.3963 90.2202 38.3963 90.5544 38.3963C90.8409 38.3963 91.0796 38.3963 91.3661 38.3483V36.1406L90.8886 36.1886C90.3157 36.2366 89.8382 36.0926 89.4562 35.8526ZM63.6731 17.9026V13.871C63.6731 13.3431 63.7686 12.7671 63.9119 12.2872C64.0551 11.6633 64.4371 11.0873 65.01 10.7034C65.4875 10.3674 66.0604 10.1754 66.6812 10.1754C66.8721 10.1754 67.1109 10.1754 67.3019 10.2234V7.72768L66.8244 7.67969C66.1082 7.67969 65.392 7.91966 64.8668 8.39961C64.2938 8.87956 63.8641 9.55148 63.6731 10.2714V9.07153C63.6731 8.25562 63.2434 7.82367 62.3362 7.82367H60.0444V9.93544H60.8561C61.0471 9.88745 61.2858 10.0314 61.2858 10.2714V17.8546H63.6731V17.9026Z" fill="#0362B2"></path></svg>